<svg width="247" height="250" viewBox="0 0 247 250" fill="none" xmlns="http://www.w3.org/2000/svg">
<path d="M246.6 124.6C246.6 55.8 190.8 0 122 0C62.2 0 12.3 42.1 0.200012 98.2H57C66.6 78.8 86.3 65.4 109.3 65.2C141.9 64.9 168.5 91.3 168.8 124.1C169.1 156.9 142.9 183.7 110.3 184C86.5 184.2 66 170.2 56.5 150H0C11.7 206.7 61.9 249.3 122 249.3C190.8 249.3 246.6 193.5 246.6 124.6Z" fill="#C1D116"/>
<path d="M233.7 124.6C233.7 69.3 188.9 24.5 133.6 24.5C87.4 24.5 48.6 55.7 37 98.2H57.1C66.7 78.8 86.4 65.4 109.4 65.2C142 64.9 168.6 91.3 168.9 124.1C169.2 156.9 143 183.7 110.4 184C86.6 184.2 66.1 170.2 56.6 150H36.7C47.9 193 87 224.8 133.6 224.8C188.9 224.8 233.7 179.9 233.7 124.6Z" fill="#76BC21"/>
<path d="M206.6 124.6C206.6 79.4 169.9 42.7 124.7 42.7C88.7 42.7 58.1 65.9 47.2 98.2H57.2C66.8 78.8 86.5 65.4 109.5 65.2C142.1 64.9 168.7 91.3 169 124.1C169.3 156.9 143.1 183.7 110.5 184C86.7 184.2 66.2 170.2 56.7 150H46.9C57.6 182.8 88.4 206.6 124.8 206.6C169.9 206.6 206.6 169.9 206.6 124.6Z" fill="#00953B"/>
</svg>
