<svg xmlns="http://www.w3.org/2000/svg" version="1.1" xmlns:xlink="http://www.w3.org/1999/xlink" xmlns:svgjs="http://svgjs.dev/svgjs" width="1000" height="623" viewBox="0 0 1000 623"><g transform="matrix(1,0,0,1,-0.6060606060606233,0.2522267206477409)"><svg viewBox="0 0 396 247" data-background-color="#ffffff" preserveAspectRatio="xMidYMid meet" height="623" width="1000" xmlns="http://www.w3.org/2000/svg" xmlns:xlink="http://www.w3.org/1999/xlink"><g id="tight-bounds" transform="matrix(1,0,0,1,0.2400000000000091,-0.09999999999999432)"><svg viewBox="0 0 395.52 247.2" height="247.2" width="395.52"><g><svg></svg></g><g><svg viewBox="0 0 395.52 247.2" height="247.2" width="395.52"><g transform="matrix(1,0,0,1,75.54432,50.164317495652185)"><svg viewBox="0 0 244.43135999999998 146.87136500869562" height="146.87136500869562" width="244.43135999999998"><g><svg viewBox="0 0 244.43135999999998 146.87136500869562" height="146.87136500869562" width="244.43135999999998"><g><svg viewBox="0 0 244.43135999999998 146.87136500869562" height="146.87136500869562" width="244.43135999999998"><g><svg viewBox="0 0 244.43135999999998 146.87136500869562" height="146.87136500869562" width="244.43135999999998"><g><svg viewBox="0 0 244.43135999999998 146.87136500869562" height="146.87136500869562" width="244.43135999999998"><g><svg viewBox="0 0 244.43135999999998 146.87136500869562" height="146.87136500869562" width="244.43135999999998"><g transform="matrix(1,0,0,1,0,0)"><svg width="244.43135999999998" viewBox="2 -34.150001525878906 57.5 34.55000305175781" height="146.87136500869562" data-palette-color="#0718c4"><path d="M29.55-33.7L17.7 0 13.45 0 2-33.7 5.35-33.7 9.8-20.35 15.6-2.75 21.6-20.35 26.2-33.7 29.55-33.7ZM59.5-5.15L59.5-1.75Q56.45 0.4 51.1 0.4L51.1 0.4Q43.45 0.4 38.75-4.25 34.05-8.9 34.05-17.05L34.05-17.05Q34.05-24.65 38.9-29.4 43.75-34.15 50.9-34.15L50.9-34.15Q55.85-34.15 59.4-32.35L59.4-32.35 59.4-29.1Q57.2-30.25 55.5-30.73 53.8-31.2 50.8-31.2L50.8-31.2Q45-31.2 41.12-27.28 37.25-23.35 37.25-17.05L37.25-17.05Q37.25-10.45 41.07-6.5 44.9-2.55 51.25-2.55L51.25-2.55Q56.2-2.55 59.5-5.15L59.5-5.15Z" opacity="1" transform="matrix(1,0,0,1,0,0)" fill="#0718c4" class="undefined-text-0" data-fill-palette-color="primary" id="text-0"></path></svg></g></svg></g></svg></g></svg></g></svg></g></svg></g></svg></g><g><path d="M0 123.6c0-68.262 55.338-123.6 123.6-123.6 32.381 0 61.853 12.452 83.89 32.828h-10.1c-20.13-16.384-45.813-26.205-73.79-26.205-64.605 0-116.977 52.373-116.977 116.977 0 64.605 52.373 116.977 116.977 116.977 27.977 0 53.661-9.822 73.79-26.205l10.1 0c-22.037 20.376-51.509 32.828-83.89 32.828-68.262 0-123.6-55.338-123.6-123.6z" fill="#0718c4" stroke="transparent" data-fill-palette-color="tertiary"></path></g></svg></g><defs></defs></svg><rect width="395.52" height="247.2" fill="none" stroke="none" visibility="hidden"></rect></g></svg></g></svg>